<svg width="24" height="24" viewBox="0 0 24 24" fill="none" xmlns="http://www.w3.org/2000/svg">
<path d="M3.07868 12.0531C7.00661 11.9429 16.3753 11.5288 18.4662 8.5987C20.0557 6.37211 16.5474 4.05347 14.88 3.21561C13.2127 2.37534 10.893 2 10.893 2C15.5611 2.50731 22.9407 4.97003 20.6437 9.44744C18.5868 13.4551 7.86231 14 3.07617 14V12.0518H3.07868V12.0531Z" fill="white"/>
<path d="M3.07617 21.9758V20.088C9.01729 19.8996 16.9564 19.7362 21.0742 16C21.186 19.2914 16.4362 20.7762 12.8008 21.3951C9.65439 21.9305 6.30433 22.0617 3.07743 21.9758H3.07617Z" fill="white"/>
<path d="M21.0762 12C17.8268 15.1975 11.3067 16.0851 3.07617 16.0851V18C11.7312 18 21.0512 16.7902 21.0762 12Z" fill="white"/>
</svg>
