<svg width="24" height="24" viewBox="0 0 24 24" fill="none" xmlns="http://www.w3.org/2000/svg">
<path d="M4 15.1522V20.4634C4 20.7903 4.30818 20.9261 4.40406 20.9569C4.49994 20.994 4.82181 21.0741 5.10944 20.8336L9.58438 16.9723C9.96548 16.6435 10.3333 16.2979 10.6097 15.8935C10.7398 15.7035 10.7937 15.5963 10.7937 15.5963C11.0676 15.0966 11.0676 14.6156 10.8004 14.1344C10.4034 13.4188 9.38973 12.6909 7.86247 12L5.25326 13.3078C4.4794 13.7026 4 14.3996 4 15.1522Z" fill="#C3C3C3"/>
<path d="M3 3.55773V8.85911C3 9.52251 3.4508 10.1096 4.09141 10.2975C6.27419 10.9198 10.0763 12.2583 10.9957 14.225C11.1142 14.4834 11.1854 14.7359 11.2093 15C11.8202 13.9022 12.099 12.6399 11.9685 11.3601C11.7905 9.54599 10.8176 7.89628 9.29926 6.8454L3.8838 3.10568C3.78889 3.03523 3.67619 3 3.5635 3C3.46858 3 3.38554 3.01761 3.29658 3.06458C3.11862 3.16438 3 3.34638 3 3.55773Z" fill="white"/>
<path d="M20 15.1522V20.4634C20 20.7903 19.7359 20.9261 19.6536 20.9569C19.5716 20.994 19.2955 21.0741 19.0491 20.8336L15.124 16.8825C14.8569 16.6135 14.6018 16.3291 14.4005 16.0031C14.2411 15.7451 14.1769 15.5963 14.1769 15.5963C13.942 15.0966 13.942 14.6156 14.1709 14.1344C14.5114 13.4188 15.3803 12.6909 16.6892 12L18.9257 13.3078C19.595 13.7026 20 14.3996 20 15.1522Z" fill="#C3C3C3"/>
<path d="M22 3.55773V8.85911C22 9.52251 21.5491 10.1096 20.9084 10.2975C18.7257 10.9198 14.9237 12.2583 14.0044 14.225C13.8856 14.4834 13.8144 14.7359 13.7907 15C13.1798 13.9022 12.901 12.6399 13.0315 11.3601C13.2093 9.54599 14.1821 7.8963 15.7007 6.84541L21.1162 3.10567C21.2111 3.03522 21.3237 3 21.4364 3C21.5313 3 21.6144 3.01761 21.7032 3.06458C21.8813 3.16438 22 3.34638 22 3.55773Z" fill="white"/>
</svg>
