<svg width="24" height="24" viewBox="0 0 24 24" fill="none" xmlns="http://www.w3.org/2000/svg">
<path d="M14.3056 13.2353H20.7657C21.017 13.2353 21.0916 12.8602 20.863 12.7456L14.3044 9.45877V2.25684C14.3044 1.98845 13.9759 1.90038 13.8628 2.13854L11.1404 7.87351L8.10055 6.35593C7.89869 6.25513 7.69409 6.49005 7.79532 6.70635L9.69468 10.7647H3.23436C2.98297 10.7647 2.90839 11.1398 3.13703 11.2544L9.69589 14.5422L9.69582 21.7432C9.69582 22.0116 10.0244 22.0996 10.1375 21.8615L12.8596 16.127L15.8946 17.6472C16.0964 17.7483 16.3013 17.5138 16.2003 17.2973L14.3056 13.2353Z" fill="white"/>
</svg>
