<svg overflow="visible" style="display: block;" width="10.185" height="18" viewBox="0 0 10.185 18" fill="none" xmlns="http://www.w3.org/2000/svg">
<path id="Icon" d="M5.485 7.9C3.215 7.31 2.485 6.705 2.485 5.755C2.485 4.665 3.49 3.9 5.185 3.9C6.965 3.9 7.625 4.75 7.685 6H9.895C9.83 4.275 8.775 2.705 6.685 2.19V0H3.685V2.16C1.745 2.585 0.185 3.835 0.185 5.77C0.185 8.08 2.1 9.23 4.885 9.9C7.39 10.5 7.885 11.375 7.885 12.315C7.885 13 7.4 14.1 5.185 14.1C3.125 14.1 2.31 13.175 2.205 12H0C0.125 14.19 1.76 15.415 3.685 15.83V18H6.685V15.85C8.63 15.475 10.185 14.35 10.185 12.295C10.185 9.465 7.755 8.495 5.485 7.9V7.9Z" fill="white"/>
</svg>
