<svg width="24" height="24" viewBox="0 0 24 24" fill="none" xmlns="http://www.w3.org/2000/svg">
<path fill-rule="evenodd" clip-rule="evenodd" d="M18.195 3.03057C17.8205 2.99997 17.3657 2.99998 16.8386 3H5.16146C4.63433 2.99998 4.17954 2.99997 3.80498 3.03057C3.40963 3.06287 3.01641 3.13419 2.63803 3.32698C2.07355 3.6146 1.6146 4.07354 1.32698 4.63803C1.13419 5.01641 1.06287 5.40963 1.03057 5.80497C0.999969 6.17954 0.999984 6.63429 1 7.16142V16.8385C0.999984 17.3657 0.999969 17.8205 1.03057 18.195C1.06287 18.5904 1.13419 18.9836 1.32698 19.362C1.6146 19.9265 2.07355 20.3854 2.63803 20.673C3.01641 20.8658 3.40963 20.9371 3.80497 20.9694C4.17954 21 4.6343 21 5.16144 21L16.8386 21C17.3657 21 17.8205 21 18.195 20.9694C18.5904 20.9371 18.9836 20.8658 19.362 20.673C19.9265 20.3854 20.3854 19.9265 20.673 19.362C20.8658 18.9836 20.9371 18.5904 20.9694 18.195C21 17.8205 21 17.3657 21 16.8386V15.3285C21.9878 14.9796 22.7339 14.1331 22.9424 13.0853C23.0006 12.7924 23.0003 12.4646 23 12.0839L23 12L23 11.9161C23.0003 11.5354 23.0006 11.2076 22.9424 10.9147C22.7339 9.86686 21.9878 9.02039 21 8.67147V7.16144C21 6.6343 21 6.17954 20.9694 5.80498C20.9371 5.40963 20.8658 5.01641 20.673 4.63803C20.3854 4.07355 19.9265 3.61461 19.362 3.32699C18.9836 3.13419 18.5904 3.06288 18.195 3.03057ZM20.1951 13.4808C20.1228 13.4952 20.0126 13.5 19.5 13.5H17.5C16.9874 13.5 16.8772 13.4952 16.8049 13.4808C16.4082 13.4019 16.0981 13.0918 16.0192 12.6951C16.0048 12.6228 16 12.5126 16 12C16 11.4874 16.0048 11.3772 16.0192 11.3049C16.0981 10.9082 16.4082 10.5981 16.8049 10.5192C16.8772 10.5048 16.9874 10.5 17.5 10.5H19.5C20.0126 10.5 20.1228 10.5048 20.1951 10.5192C20.5918 10.5981 20.9019 10.9082 20.9808 11.3049C20.9952 11.3772 21 11.4874 21 12C21 12.5126 20.9952 12.6228 20.9808 12.6951C20.9019 13.0918 20.5918 13.4019 20.1951 13.4808ZM17.4161 8.49996L19 8.5V7.2C19 6.62345 18.9992 6.25118 18.9761 5.96784C18.9539 5.69618 18.9162 5.59546 18.891 5.54601C18.7951 5.35785 18.6422 5.20487 18.454 5.109C18.4046 5.08381 18.3038 5.04613 18.0322 5.02393C17.7488 5.00078 17.3765 5 16.8 5H5.2C4.62345 5 4.25118 5.00078 3.96784 5.02393C3.69618 5.04613 3.59546 5.0838 3.54601 5.109C3.35785 5.20487 3.20487 5.35785 3.109 5.54601C3.0838 5.59546 3.04613 5.69618 3.02393 5.96784C3.00078 6.25118 3 6.62345 3 7.2V16.8C3 17.3766 3.00078 17.7488 3.02393 18.0322C3.04613 18.3038 3.0838 18.4045 3.109 18.454C3.20487 18.6422 3.35785 18.7951 3.54601 18.891C3.59546 18.9162 3.69618 18.9539 3.96784 18.9761C4.25118 18.9992 4.62345 19 5.2 19L16.8 19C17.3766 19 17.7488 18.9992 18.0322 18.9761C18.3038 18.9539 18.4045 18.9162 18.454 18.891C18.6422 18.7951 18.7951 18.6422 18.891 18.454C18.9162 18.4045 18.9539 18.3038 18.9761 18.0322C18.9992 17.7488 19 17.3766 19 16.8V15.5L17.4161 15.5C17.0354 15.5003 16.7076 15.5006 16.4147 15.4424C15.2247 15.2056 14.2944 14.2753 14.0576 13.0853C13.9994 12.7924 13.9997 12.4646 14 12.0839L14 12L14 11.9161C13.9997 11.5354 13.9994 11.2076 14.0576 10.9147C14.2944 9.72466 15.2247 8.79437 16.4147 8.55765C16.7076 8.49939 17.0354 8.49966 17.4161 8.49996Z" fill="white"/>
</svg>
