<svg width="26" height="26" viewBox="0 0 26 26" fill="none" xmlns="http://www.w3.org/2000/svg">
<path d="M12.0143 11.8553C12.8292 11.8553 13.1945 11.8327 13.2652 11.8273L13.2629 11.8266C15.763 11.712 17.6278 11.2609 17.6278 10.722C17.6278 10.1831 15.7624 9.73202 13.2629 9.61681V11.3786C13.1928 11.3853 12.8033 11.4188 12.0255 11.4188C11.3774 11.4188 10.9084 11.3902 10.7445 11.378V9.61559C8.23977 9.73141 6.37016 10.1819 6.37016 10.722C6.37016 11.2621 8.23977 11.7133 10.7445 11.8273C10.906 11.8352 11.3662 11.8553 12.0143 11.8553Z" fill="white"/>
<path d="M13.2652 9.43395C13.265 9.43394 13.2654 9.43396 13.2652 9.43395Z" fill="white"/>
<path fill-rule="evenodd" clip-rule="evenodd" d="M2.01597 11.0134L5.66267 3.08841C5.67461 3.06171 5.69375 3.03917 5.7178 3.02348C5.74185 3.0078 5.76977 2.99965 5.79819 3.00001H18.2043C18.2326 2.99993 18.2603 3.00829 18.2841 3.02407C18.3079 3.03985 18.3269 3.0624 18.3386 3.08902L21.9853 11.014C21.9992 11.0434 22.0036 11.0767 21.9979 11.109C21.9922 11.1412 21.9766 11.1707 21.9535 11.1932L12.1046 20.9567C12.0767 20.9845 12.0394 21 12.0007 21C11.9619 21 11.9246 20.9845 11.8967 20.9567L2.04779 11.1926C2.02469 11.1701 2.00914 11.1406 2.00342 11.1084C1.99769 11.0761 2.00209 11.0428 2.01597 11.0134ZM13.2652 7.85747V9.43395C16.095 9.56934 18.2212 10.1497 18.2212 10.8452C18.2212 11.5407 16.0929 12.1211 13.2647 12.2558V17.3113H10.744V12.2576C7.90921 12.1223 5.7774 11.542 5.7774 10.8458C5.7774 10.1496 7.90921 9.56865 10.744 9.43392V7.85747H7.25635V5.45255H16.7534V7.85747H13.2652Z" fill="white"/>
<rect x="14" y="14" width="12" height="12" rx="6" fill="#9745D6"/>
<path opacity="0.6" d="M20 15V18.6966L23.1244 20.0927L20 15Z" fill="white"/>
<path d="M19.9998 15L16.875 20.0927L19.9998 18.6966V15Z" fill="white"/>
<path opacity="0.6" d="M20 22.4885V25.0003L23.1265 20.6748L20 22.4885Z" fill="white"/>
<path d="M19.9998 25.0003V22.4881L16.875 20.6748L19.9998 25.0003Z" fill="white"/>
<path opacity="0.2" d="M20 21.9067L23.1244 20.0926L20 18.6973V21.9067Z" fill="white"/>
<path opacity="0.6" d="M16.875 20.0926L19.9998 21.9067V18.6973L16.875 20.0926Z" fill="white"/>
</svg>
