<svg preserveAspectRatio="none" width="100%" height="100%" overflow="visible" style="display: block;" viewBox="0 0 22.0001 18" fill="none" xmlns="http://www.w3.org/2000/svg">
<path id="Icon" fill-rule="evenodd" clip-rule="evenodd" d="M17.195 0.0305743C16.8205 -2.91299e-05 16.3657 -1.52695e-05 15.8386 7.9886e-07H4.16146C3.63433 -1.62232e-05 3.17954 -3.09069e-05 2.80498 0.0305721C2.40963 0.0628731 2.01641 0.134189 1.63803 0.326983C1.07355 0.614603 0.614604 1.07354 0.326983 1.63803C0.134189 2.01641 0.0628731 2.40963 0.0305721 2.80497C-3.09069e-05 3.17954 -1.62232e-05 3.63429 7.98861e-07 4.16142V13.8385C-1.62232e-05 14.3657 -3.09069e-05 14.8205 0.030572 15.195C0.0628731 15.5904 0.134189 15.9836 0.326983 16.362C0.614603 16.9265 1.07355 17.3854 1.63803 17.673C2.01641 17.8658 2.40963 17.9371 2.80497 17.9694C3.17954 18 3.6343 18 4.16144 18L15.8386 18C16.3657 18 16.8205 18 17.195 17.9694C17.5904 17.9371 17.9836 17.8658 18.362 17.673C18.9265 17.3854 19.3854 16.9265 19.673 16.362C19.8658 15.9836 19.9371 15.5904 19.9694 15.195C20 14.8205 20 14.3657 20 13.8386V12.3285C20.9878 11.9796 21.7339 11.1331 21.9424 10.0853C22.0006 9.79243 22.0003 9.46461 22 9.08394L22 9L22 8.91613C22.0003 8.53544 22.0006 8.20758 21.9424 7.91473C21.7339 6.86686 20.9878 6.02039 20 5.67147V4.16144C20 3.6343 20 3.17954 19.9694 2.80498C19.9371 2.40963 19.8658 2.01641 19.673 1.63803C19.3854 1.07355 18.9265 0.614605 18.362 0.326985C17.9836 0.134191 17.5904 0.0628754 17.195 0.0305743ZM19.1951 10.4808C19.1228 10.4952 19.0126 10.5 18.5 10.5H16.5C15.9874 10.5 15.8772 10.4952 15.8049 10.4808C15.4082 10.4019 15.0981 10.0918 15.0192 9.69509C15.0048 9.62284 15 9.51259 15 9C15 8.48742 15.0048 8.37716 15.0192 8.30491C15.0981 7.90822 15.4082 7.59812 15.8049 7.51922C15.8772 7.50485 15.9874 7.5 16.5 7.5H18.5C19.0126 7.5 19.1228 7.50485 19.1951 7.51922C19.5918 7.59812 19.9019 7.90822 19.9808 8.30491C19.9952 8.37716 20 8.48742 20 9C20 9.51259 19.9952 9.62284 19.9808 9.69509C19.9019 10.0918 19.5918 10.4019 19.1951 10.4808ZM16.4161 5.49996L18 5.5V4.2C18 3.62345 17.9992 3.25118 17.9761 2.96784C17.9539 2.69618 17.9162 2.59546 17.891 2.54601C17.7951 2.35785 17.6422 2.20487 17.454 2.109C17.4046 2.08381 17.3038 2.04613 17.0322 2.02393C16.7488 2.00078 16.3765 2 15.8 2H4.2C3.62345 2 3.25118 2.00078 2.96784 2.02393C2.69618 2.04613 2.59546 2.0838 2.54601 2.109C2.35785 2.20487 2.20487 2.35785 2.109 2.54601C2.0838 2.59546 2.04613 2.69618 2.02393 2.96784C2.00078 3.25118 2 3.62345 2 4.2V13.8C2 14.3766 2.00078 14.7488 2.02393 15.0322C2.04613 15.3038 2.0838 15.4045 2.109 15.454C2.20487 15.6422 2.35785 15.7951 2.54601 15.891C2.59546 15.9162 2.69618 15.9539 2.96784 15.9761C3.25118 15.9992 3.62345 16 4.2 16L15.8 16C16.3766 16 16.7488 15.9992 17.0322 15.9761C17.3038 15.9539 17.4045 15.9162 17.454 15.891C17.6422 15.7951 17.7951 15.6422 17.891 15.454C17.9162 15.4045 17.9539 15.3038 17.9761 15.0322C17.9992 14.7488 18 14.3766 18 13.8V12.5L16.4161 12.5C16.0354 12.5003 15.7076 12.5006 15.4147 12.4424C14.2247 12.2056 13.2944 11.2753 13.0576 10.0853C12.9994 9.79242 12.9997 9.46459 13 9.08389L13 9L13 8.91612C12.9997 8.53542 12.9994 8.20759 13.0576 7.91473C13.2944 6.72466 14.2247 5.79437 15.4147 5.55765C15.7076 5.49939 16.0354 5.49966 16.4161 5.49996Z" fill="white"/>
</svg>
