<svg preserveAspectRatio="none" width="100%" height="100%" overflow="visible" style="display: block;" viewBox="0 0 19.9993 18" fill="none" xmlns="http://www.w3.org/2000/svg">
<g id="Icon">
<path d="M10.0133 8.8553C10.8282 8.8553 11.1936 8.83274 11.2643 8.82726L11.2619 8.82665C13.762 8.71204 15.6269 8.26093 15.6269 7.72203C15.6269 7.18314 13.7614 6.73202 11.2619 6.61681V8.37858C11.1918 8.38529 10.8023 8.41882 10.0245 8.41882C9.3764 8.41882 8.90738 8.39017 8.74357 8.37797V6.61559C6.23879 6.73141 4.36918 7.18192 4.36918 7.72203C4.36918 8.26215 6.23879 8.71326 8.74357 8.82726C8.90502 8.83518 9.3652 8.8553 10.0133 8.8553Z" fill="white"/>
<path d="M11.2643 6.43395C11.2641 6.43394 11.2645 6.43396 11.2643 6.43395Z" fill="white"/>
<path fill-rule="evenodd" clip-rule="evenodd" d="M0.0149924 8.01336L3.66169 0.0884055C3.67363 0.0617139 3.69278 0.0391659 3.71683 0.0234814C3.74087 0.00779689 3.76879 -0.000354069 3.79722 1.17974e-05H16.2033C16.2316 -6.52887e-05 16.2593 0.00828685 16.2831 0.02407C16.307 0.0398532 16.3259 0.0623998 16.3377 0.0890151L19.9844 8.01397C19.9982 8.04344 20.0026 8.07674 19.9969 8.10899C19.9912 8.14124 19.9756 8.17074 19.9525 8.19319L10.1037 17.9567C10.0757 17.9845 10.0384 18 9.99967 18C9.96091 18 9.92365 17.9845 9.89568 17.9567L0.0468105 8.19258C0.023715 8.17013 0.00816806 8.14063 0.00244313 8.10838C-0.00328179 8.07613 0.00111566 8.04283 0.0149924 8.01336ZM11.2643 4.85747V6.43395C14.094 6.56934 16.2202 7.14966 16.2202 7.84517C16.2202 8.54074 14.0919 9.12109 11.2637 9.25581V14.3113H8.74298V9.25764C5.90823 9.12231 3.77643 8.54196 3.77643 7.84578C3.77643 7.14961 5.90823 6.56865 8.74298 6.43392V4.85747H5.25538V2.45255H14.7525V4.85747H11.2643Z" fill="white"/>
</g>
</svg>
