<svg width="24" height="24" viewBox="0 0 24 24" fill="none" xmlns="http://www.w3.org/2000/svg">
<path d="M5.24872 16.164C5.36941 16.0433 5.53537 15.9729 5.71138 15.9729H21.6732C21.9648 15.9729 22.1107 16.3249 21.9045 16.5311L18.7514 19.6842C18.6307 19.8049 18.4647 19.8753 18.2887 19.8753H2.32692C2.03524 19.8753 1.8894 19.5233 2.09559 19.3171L5.24872 16.164Z" fill="white"/>
<path d="M5.24872 4.39129C5.37444 4.2706 5.54039 4.2002 5.71138 4.2002H21.6732C21.9648 4.2002 22.1107 4.55222 21.9045 4.75841L18.7514 7.91154C18.6307 8.03223 18.4647 8.10263 18.2887 8.10263H2.32692C2.03524 8.10263 1.8894 7.75061 2.09559 7.54442L5.24872 4.39129Z" fill="white"/>
<path d="M18.7514 10.2399C18.6307 10.1192 18.4647 10.0488 18.2887 10.0488H2.32692C2.03524 10.0488 1.8894 10.4008 2.09559 10.607L5.24872 13.7602C5.36941 13.8809 5.53537 13.9513 5.71138 13.9513H21.6732C21.9648 13.9513 22.1107 13.5992 21.9045 13.3931L18.7514 10.2399Z" fill="white"/>
</svg>
