<svg preserveAspectRatio="none" width="100%" height="100%" overflow="visible" style="display: block;" viewBox="0 0 20.002 15.6751" fill="none" xmlns="http://www.w3.org/2000/svg">
<g id="Icon">
<path d="M3.24969 11.9638C3.37039 11.8431 3.53634 11.7727 3.71235 11.7727H19.6741C19.9658 11.7727 20.1116 12.1247 19.9055 12.3309L16.7523 15.484C16.6316 15.6047 16.4657 15.6751 16.2897 15.6751H0.327893C0.0362161 15.6751 -0.109622 15.3231 0.0965631 15.1169L3.24969 11.9638Z" fill="white"/>
<path d="M3.24969 0.191099C3.37542 0.0704048 3.54137 0 3.71235 0H19.6741C19.9658 0 20.1116 0.352024 19.9055 0.55821L16.7523 3.71134C16.6316 3.83203 16.4657 3.90244 16.2897 3.90244H0.327893C0.0362161 3.90244 -0.109622 3.55041 0.0965631 3.34423L3.24969 0.191099Z" fill="white"/>
<path d="M16.7523 6.03973C16.6316 5.91903 16.4657 5.84863 16.2897 5.84863H0.327893C0.0362161 5.84863 -0.109622 6.20065 0.0965631 6.40684L3.24969 9.55997C3.37039 9.68066 3.53634 9.75107 3.71235 9.75107H19.6741C19.9658 9.75107 20.1116 9.39905 19.9055 9.19286L16.7523 6.03973Z" fill="white"/>
</g>
</svg>
