<svg preserveAspectRatio="none" width="100%" height="100%" overflow="visible" style="display: block;" viewBox="0 0 15.11 20" fill="none" xmlns="http://www.w3.org/2000/svg">
<path id="Icon" d="M15.0704 8.0405C15.3852 5.93915 13.7842 4.80926 11.5966 4.05534L12.3064 1.20808L10.574 0.776981L9.8822 3.54905C9.42704 3.43476 8.95985 3.32849 8.49366 3.22222L9.19044 0.432102L7.45802 0L6.74821 2.84626C6.37125 2.76004 6.0003 2.67582 5.64139 2.58559L5.64339 2.57657L3.2533 1.98005L2.79212 3.83077C2.79212 3.83077 4.0784 4.12552 4.05133 4.14357C4.75312 4.31901 4.87944 4.7832 4.85839 5.15214L4.05033 8.39541C4.09845 8.40744 4.16061 8.42549 4.23079 8.45255L4.04732 8.40744L2.91443 12.951C2.82821 13.1636 2.61066 13.4834 2.1194 13.3621C2.13745 13.3871 0.860194 13.0483 0.860194 13.0483L0 15.0313L2.25575 15.5938C2.67482 15.699 3.08587 15.8093 3.4899 15.9126L2.77307 18.7919L4.50449 19.223L5.2143 16.3758C5.6875 16.5031 6.14667 16.6214 6.59582 16.7337L5.88801 19.5689L7.62043 20L8.33726 17.1267C11.2928 17.6861 13.5145 17.4605 14.4498 14.7877C15.2038 12.6362 14.4128 11.3941 12.8578 10.585C13.9907 10.3243 14.8428 9.57943 15.0704 8.0405V8.0405ZM11.1103 13.5927C10.576 15.7452 6.95173 14.5812 5.77673 14.2894L6.72916 10.4747C7.90416 10.7685 11.6708 11.3489 11.1103 13.5927ZM11.6467 8.00942C11.1585 9.96742 8.14276 8.97188 7.16527 8.72826L8.02747 5.26944C9.00496 5.51306 12.156 5.96722 11.6467 8.00942Z" fill="white"/>
</svg>
