<svg preserveAspectRatio="none" width="100%" height="100%" overflow="visible" style="display: block;" viewBox="0 0 424.759 200.5" fill="none" xmlns="http://www.w3.org/2000/svg" xmlns:xlink="http://www.w3.org/1999/xlink">
<g id=".Comparative Line">
<path id="Outline of chart" d="M0.265057 157.546L2.03222 156.441L3.79939 164.175L5.56656 163.071L7.33373 153.127L9.10089 152.022L10.8681 172.108L12.6352 175.423L14.4024 176.528L16.1696 175.423L17.9367 176.528L19.7039 177.633L21.4711 174.318L23.2382 161.06L25.0054 163.27L26.7726 162.165L28.5397 176.528L30.3069 189.786L32.0741 163.27L33.8412 156.64L35.6084 169.899L37.3756 163.27L39.1427 138.963L40.9099 93.663L42.6771 94.7679L44.4442 119.075L46.2114 132.333L47.9786 113.551L49.7457 124.599L51.5129 113.551L53.2801 114.655L55.0472 123.494L56.8144 124.599L58.5816 140.067L60.3487 165.479L62.1159 168.794L63.8831 169.899L65.6502 168.794L67.4174 178.738L69.1846 177.633L70.9518 184.262L72.7189 166.584L74.4861 183.157L76.2533 191.395L78.0204 192.5L79.7876 186.472L81.5548 185.367L83.3219 184.262L85.0891 176.528L86.8563 163.27L88.6234 157.745L90.3906 161.06L92.1578 150.011L93.9249 152.221H95.6921L97.4593 147.801L99.2264 155.535L100.994 98.1424L102.761 62.7869L104.528 68.3112L106.295 69.416L108.062 76.0452L109.829 77.1501L111.597 76.0452L113.364 60.5771L115.131 64.9966L116.898 77.1501L118.665 76.0452L120.432 13.0079L122.2 17.4273L123.967 18.5322L125.734 17.4273L127.501 8.58843L129.268 4.81622H131.035L132.803 8.1308L134.57 9.23567L136.337 3.71135L138.104 24.7038L139.871 2.60648L141.638 3.71135L143.406 2.60648L145.173 15.8649L146.94 14.76L148.707 15.8649L150.474 42.4849L152.241 43.5897L154.009 35.8557L155.776 23.7022L157.543 40.2752L159.31 20.3876L161.077 1.60487L162.844 2.70974L164.612 0.500027L166.379 77.8407L168.146 89.9941L169.913 91.099L171.68 89.9941L173.447 91.099L175.215 137.848L176.982 119.066L178.749 108.017L180.516 91.099L182.283 114.655L184.05 115.76L185.818 120.18L187.585 121.285L189.352 112.446H191.119L192.886 111.341L194.653 112.446L196.421 121.285L198.188 122.389L199.955 134.543L201.722 126.809L203.489 125.704L205.256 136.753L207.024 134.543L208.791 112.446L210.558 111.341L212.325 112.446H214.092L215.859 113.55L217.627 112.446L219.394 113.55L221.161 129.019L222.928 130.123L224.695 129.019L226.462 130.123L228.23 129.019L229.997 130.123L231.764 129.019L233.531 130.123L235.298 113.55L237.065 115.76H238.833L240.6 116.865L242.367 119.075L244.134 116.865L245.901 129.019L247.668 130.123L249.436 129.019L251.203 130.123L252.97 117.97L254.737 119.075L256.504 117.97L258.271 154.431L260.039 153.326L261.806 154.431L263.573 156.64L265.34 164.374L267.107 153.326L268.874 154.431L270.642 165.479L272.409 124.599L274.176 129.019L275.943 112.446L277.71 99.1873L279.477 100.292L281.245 143.382L283.012 144.487L284.779 143.382L286.546 119.075L288.313 129.019L290.08 135.648L291.848 158.85L293.615 159.955L295.382 155.535L297.149 156.64L298.916 163.269L300.683 165.479L302.451 163.269L304.218 155.535L305.985 165.479L307.752 166.584L309.519 155.535L311.286 162.165L313.054 161.06L314.821 174.318L316.588 117.97L318.355 104.712L320.122 102.502L321.889 103.607L323.657 113.55L325.424 114.655L327.191 113.55L328.958 131.228L330.725 130.123L332.492 131.228L334.26 130.123L336.027 113.55L337.794 112.446L339.561 82.6143L341.328 81.5095L343.095 82.6143L344.863 75.9851H346.63L348.397 73.7754L350.164 78.1949L351.931 77.09L353.698 73.7754L355.466 77.09L357.233 78.1949L359 84.8241L360.767 85.9289L362.534 102.502L364.301 103.607L366.069 110.236L367.836 104.712L369.603 111.341L371.37 66.7141L373.137 65.6093L374.904 54.5606L376.672 51.246L378.439 76.6579L380.206 63.3996L381.973 66.7141L383.74 51.246L385.507 52.3509L387.275 61.1898L389.042 70.0288L390.809 54.5607H392.576L394.343 37.9877L396.11 51.2461L397.878 56.7705L399.645 44.6169L401.412 56.7705H403.179L404.946 53.4558L406.713 62.2948L408.481 57.8753L410.248 78.8677L412.015 77.7629L413.782 86.6018L415.549 60.085L417.316 66.7142L419.084 58.9802L420.851 67.8191L422.618 106.463L424.265 116.925" stroke="#AC96FF" stroke-linejoin="round"/>
<g id="Fill of chart">
<path d="M2.03222 157.044L0.265057 158.153V200.5H424.265V117.375L422.618 106.873L420.851 68.0792L419.084 59.2062L417.316 66.9701L415.549 60.3153L413.782 86.9345L412.015 78.0614L410.248 79.1706L408.481 58.097L406.713 62.5336L404.946 53.6605L403.179 56.9879H401.412L399.645 44.7874L397.878 56.9879L396.11 51.4422L394.343 38.1326L392.576 54.7696H390.809L389.042 70.2975L387.275 61.4243L385.507 52.5513L383.74 51.4421L381.973 66.97L380.206 63.6426L378.439 76.9522L376.672 51.4421L374.904 54.7695L373.137 65.8609L371.37 66.97L369.603 111.769L367.836 105.114L366.069 110.66L364.301 104.005L362.534 102.896L360.767 86.2591L359 85.1499L357.233 78.4951L355.466 77.386L353.698 74.0585L351.931 77.386L350.164 78.4951L348.397 74.0585L346.63 76.2768H344.863L343.095 82.9316L341.328 81.8225L339.561 82.9316L337.794 112.878L336.027 113.987L334.26 130.624L332.492 131.733L330.725 130.624L328.958 131.733L327.191 113.987L325.424 115.096L323.657 113.987L321.889 104.005L320.122 102.896L318.355 105.114L316.588 118.424L314.821 174.99L313.054 161.68L311.286 162.789L309.519 156.134L307.752 167.226L305.985 166.117L304.218 156.134L302.451 163.898L300.683 166.117L298.916 163.898L297.149 157.244L295.382 156.134L293.615 160.571L291.848 159.462L290.08 136.17L288.313 129.515L286.546 119.533L284.779 143.934L283.012 145.043L281.245 143.934L279.477 100.678L277.71 99.5687L275.943 112.878L274.176 129.515L272.409 125.079L270.642 166.117L268.874 155.025L267.107 153.916L265.34 165.007L263.573 157.244L261.806 155.025L260.039 153.916L258.271 155.025L256.504 118.424L254.737 119.533L252.97 118.424L251.203 130.624L249.436 129.515L247.668 130.624L245.901 129.515L244.134 117.315L242.367 119.533L240.6 117.315L238.833 116.206H237.065L235.298 113.987L233.531 130.624L231.764 129.515L229.997 130.624L228.23 129.515L226.462 130.624L224.695 129.515L222.928 130.624L221.161 129.515L219.394 113.987L217.627 112.878L215.859 113.987L214.092 112.878H212.325L210.558 111.769L208.791 112.878L207.024 135.061L205.256 137.279L203.489 126.188L201.722 127.297L199.955 135.061L198.188 122.86L196.421 121.751L194.653 112.878L192.886 111.769L191.119 112.878H189.352L187.585 121.751L185.818 120.642L184.05 116.206L182.283 115.096L180.516 91.4491L178.749 108.433L176.982 119.524L175.215 138.379L173.447 91.4491L171.68 90.34L169.913 91.4491L168.146 90.34L166.379 78.1395L164.612 0.500027L162.844 2.71828L161.077 1.60914L159.31 20.4644L157.543 40.4289L155.776 23.7919L154.009 35.9923L152.241 43.7562L150.474 42.6471L148.707 15.9242L146.94 14.8151L145.173 15.9242L143.406 2.61462L141.638 3.72376L139.871 2.61462L138.104 24.7973L136.337 3.72376L134.57 9.26943L132.803 8.16029L131.035 4.8329H129.268L127.501 8.61968L125.734 17.4928L123.967 18.6019L122.2 17.4928L120.432 13.0562L118.665 76.3371L116.898 77.4463L115.131 65.2458L113.364 60.8093L111.597 76.3371L109.829 77.4463L108.062 76.3371L106.295 69.6823L104.528 68.5732L102.761 63.0275L100.994 98.5197L99.2264 156.135L97.4593 148.371L95.6921 152.807H93.9249L92.1578 150.589L90.3906 161.68L88.6234 158.353L86.8563 163.899L85.0891 177.208L83.3219 184.972L81.5548 186.081L79.7876 187.19L78.0204 193.242L76.2533 192.133L74.4861 183.863L72.7189 167.226L70.9518 184.972L69.1846 178.317L67.4174 179.426L65.6502 169.444L63.8831 170.553L62.1159 169.444L60.3487 166.117L58.5816 140.607L56.8144 125.079L55.0472 123.97L53.2801 115.097L51.5129 113.988L49.7457 125.079L47.9786 113.988L46.2114 132.843L44.4442 119.533L42.6771 95.1321L40.9099 94.023L39.1427 139.498L37.3756 163.899L35.6084 170.553L33.8412 157.244L32.0741 163.899L30.3069 190.518L28.5397 177.208L26.7726 162.789L25.0054 163.899L23.2382 161.68L21.4711 174.99L19.7039 178.317L17.9367 177.208L16.1696 176.099L14.4024 177.208L12.6352 176.099L10.8681 172.772L9.10089 152.608L7.33373 153.717L5.56656 163.699L3.79939 164.808L2.03222 157.044Z" fill="#AC96FF" fill-opacity="0.3"/>
<path d="M2.03222 157.044L0.265057 158.153V200.5H424.265V117.375L422.618 106.873L420.851 68.0792L419.084 59.2062L417.316 66.9701L415.549 60.3153L413.782 86.9345L412.015 78.0614L410.248 79.1706L408.481 58.097L406.713 62.5336L404.946 53.6605L403.179 56.9879H401.412L399.645 44.7874L397.878 56.9879L396.11 51.4422L394.343 38.1326L392.576 54.7696H390.809L389.042 70.2975L387.275 61.4243L385.507 52.5513L383.74 51.4421L381.973 66.97L380.206 63.6426L378.439 76.9522L376.672 51.4421L374.904 54.7695L373.137 65.8609L371.37 66.97L369.603 111.769L367.836 105.114L366.069 110.66L364.301 104.005L362.534 102.896L360.767 86.2591L359 85.1499L357.233 78.4951L355.466 77.386L353.698 74.0585L351.931 77.386L350.164 78.4951L348.397 74.0585L346.63 76.2768H344.863L343.095 82.9316L341.328 81.8225L339.561 82.9316L337.794 112.878L336.027 113.987L334.26 130.624L332.492 131.733L330.725 130.624L328.958 131.733L327.191 113.987L325.424 115.096L323.657 113.987L321.889 104.005L320.122 102.896L318.355 105.114L316.588 118.424L314.821 174.99L313.054 161.68L311.286 162.789L309.519 156.134L307.752 167.226L305.985 166.117L304.218 156.134L302.451 163.898L300.683 166.117L298.916 163.898L297.149 157.244L295.382 156.134L293.615 160.571L291.848 159.462L290.08 136.17L288.313 129.515L286.546 119.533L284.779 143.934L283.012 145.043L281.245 143.934L279.477 100.678L277.71 99.5687L275.943 112.878L274.176 129.515L272.409 125.079L270.642 166.117L268.874 155.025L267.107 153.916L265.34 165.007L263.573 157.244L261.806 155.025L260.039 153.916L258.271 155.025L256.504 118.424L254.737 119.533L252.97 118.424L251.203 130.624L249.436 129.515L247.668 130.624L245.901 129.515L244.134 117.315L242.367 119.533L240.6 117.315L238.833 116.206H237.065L235.298 113.987L233.531 130.624L231.764 129.515L229.997 130.624L228.23 129.515L226.462 130.624L224.695 129.515L222.928 130.624L221.161 129.515L219.394 113.987L217.627 112.878L215.859 113.987L214.092 112.878H212.325L210.558 111.769L208.791 112.878L207.024 135.061L205.256 137.279L203.489 126.188L201.722 127.297L199.955 135.061L198.188 122.86L196.421 121.751L194.653 112.878L192.886 111.769L191.119 112.878H189.352L187.585 121.751L185.818 120.642L184.05 116.206L182.283 115.096L180.516 91.4491L178.749 108.433L176.982 119.524L175.215 138.379L173.447 91.4491L171.68 90.34L169.913 91.4491L168.146 90.34L166.379 78.1395L164.612 0.500027L162.844 2.71828L161.077 1.60914L159.31 20.4644L157.543 40.4289L155.776 23.7919L154.009 35.9923L152.241 43.7562L150.474 42.6471L148.707 15.9242L146.94 14.8151L145.173 15.9242L143.406 2.61462L141.638 3.72376L139.871 2.61462L138.104 24.7973L136.337 3.72376L134.57 9.26943L132.803 8.16029L131.035 4.8329H129.268L127.501 8.61968L125.734 17.4928L123.967 18.6019L122.2 17.4928L120.432 13.0562L118.665 76.3371L116.898 77.4463L115.131 65.2458L113.364 60.8093L111.597 76.3371L109.829 77.4463L108.062 76.3371L106.295 69.6823L104.528 68.5732L102.761 63.0275L100.994 98.5197L99.2264 156.135L97.4593 148.371L95.6921 152.807H93.9249L92.1578 150.589L90.3906 161.68L88.6234 158.353L86.8563 163.899L85.0891 177.208L83.3219 184.972L81.5548 186.081L79.7876 187.19L78.0204 193.242L76.2533 192.133L74.4861 183.863L72.7189 167.226L70.9518 184.972L69.1846 178.317L67.4174 179.426L65.6502 169.444L63.8831 170.553L62.1159 169.444L60.3487 166.117L58.5816 140.607L56.8144 125.079L55.0472 123.97L53.2801 115.097L51.5129 113.988L49.7457 125.079L47.9786 113.988L46.2114 132.843L44.4442 119.533L42.6771 95.1321L40.9099 94.023L39.1427 139.498L37.3756 163.899L35.6084 170.553L33.8412 157.244L32.0741 163.899L30.3069 190.518L28.5397 177.208L26.7726 162.789L25.0054 163.899L23.2382 161.68L21.4711 174.99L19.7039 178.317L17.9367 177.208L16.1696 176.099L14.4024 177.208L12.6352 176.099L10.8681 172.772L9.10089 152.608L7.33373 153.717L5.56656 163.699L3.79939 164.808L2.03222 157.044Z" fill="url(#pattern0_0_4275)"/>
</g>
</g>
<defs>
<pattern id="pattern0_0_4275" patternUnits="userSpaceOnUse" patternTransform="matrix(7 0 0 7 0.265057 0.500027)" preserveAspectRatio="none" viewBox="0 0 17.5 17.5" width="1" height="1">
<g id="pattern0_0_4275_inner">
<circle id="Dot " cx="2.5" cy="2.5" r="2.5" fill="#AC96FF"/>
</g>
</pattern></defs>
</svg>
