<svg width="24" height="24" viewBox="0 0 24 24" fill="none" xmlns="http://www.w3.org/2000/svg">
<path d="M19.0704 10.0405C19.3852 7.93915 17.7842 6.80926 15.5966 6.05534L16.3064 3.20808L14.574 2.77698L13.8822 5.54905C13.427 5.43476 12.9598 5.32849 12.4937 5.22222L13.1904 2.4321L11.458 2L10.7482 4.84626C10.3712 4.76004 10.0003 4.67582 9.64139 4.58559L9.64339 4.57657L7.2533 3.98005L6.79212 5.83077C6.79212 5.83077 8.0784 6.12552 8.05133 6.14357C8.75312 6.31901 8.87944 6.7832 8.85839 7.15214L8.05033 10.3954C8.09845 10.4074 8.16061 10.4255 8.23079 10.4526L8.04732 10.4074L6.91443 14.951C6.82821 15.1636 6.61066 15.4834 6.1194 15.3621C6.13745 15.3871 4.86019 15.0483 4.86019 15.0483L4 17.0313L6.25575 17.5938C6.67482 17.699 7.08587 17.8093 7.4899 17.9126L6.77307 20.7919L8.50449 21.223L9.2143 18.3758C9.6875 18.5031 10.1467 18.6214 10.5958 18.7337L9.88801 21.5689L11.6204 22L12.3373 19.1267C15.2928 19.6861 17.5145 19.4605 18.4498 16.7877C19.2038 14.6362 18.4128 13.3941 16.8578 12.585C17.9907 12.3243 18.8428 11.5794 19.0704 10.0405V10.0405ZM15.1103 15.5927C14.576 17.7452 10.9517 16.5812 9.77673 16.2894L10.7292 12.4747C11.9042 12.7685 15.6708 13.3489 15.1103 15.5927ZM15.6467 10.0094C15.1585 11.9674 12.1428 10.9719 11.1653 10.7283L12.0275 7.26944C13.005 7.51306 16.156 7.96722 15.6467 10.0094Z" fill="white"/>
</svg>
