<svg width="24" height="24" viewBox="0 0 24 24" fill="none" xmlns="http://www.w3.org/2000/svg">
<path d="M12 6.7933C5.92431 6.7933 0.99841 11.7864 1 17.9438H3.81017C3.81017 13.3293 7.44787 9.58805 12 9.58805C16.5521 9.58805 20.1899 13.3293 20.1899 17.9438H23C23.0012 11.7864 18.0752 6.7933 12 6.7933Z" fill="white"/>
<path d="M9.0799 18.2067C10.3148 18.2067 11.3159 17.2109 11.3159 15.9825C11.3159 14.7541 10.3148 13.7584 9.0799 13.7584C7.84498 13.7584 6.84388 14.7541 6.84388 15.9825C6.84388 17.2109 7.84498 18.2067 9.0799 18.2067Z" fill="white"/>
<path d="M14.9238 18.2067C16.1587 18.2067 17.1598 17.2109 17.1598 15.9825C17.1598 14.7541 16.1587 13.7584 14.9238 13.7584C13.6888 13.7584 12.6878 14.7541 12.6878 15.9825C12.6878 17.2109 13.6888 18.2067 14.9238 18.2067Z" fill="white"/>
</svg>
