<svg width="200" height="200" viewBox="0 0 200 200" fill="none" xmlns="http://www.w3.org/2000/svg">
<g clip-path="url(#clip0_1_77)">
<path fill-rule="evenodd" clip-rule="evenodd" d="M100 0C155.228 0 200 44.7715 200 100C200 155.228 155.228 200 100 200C44.7715 200 0 155.228 0 100C0 44.7715 44.7715 0 100 0ZM101.029 50C72.8164 50 50.7812 71.416 50.7812 100.096C50.7813 128.775 72.2656 150 101.029 150C125.316 150 144.744 134.357 149.045 111.078H125.498C122.135 121.879 112.803 129.33 101.021 129.33C84.7656 129.33 73.373 116.852 73.373 100.096C73.3809 83.1484 84.5898 70.6699 100.84 70.6699C112.613 70.6699 121.953 77.9316 125.5 88.7305H149.219C144.922 65.6426 125.873 50 101.029 50Z" fill="white"/>
</g>
<defs>
<clipPath id="clip0_1_77">
<rect width="200" height="200" fill="white"/>
</clipPath>
</defs>
</svg>
